<?xml version="1.0" standalone="no"?>
<!DOCTYPE svg PUBLIC "-//W3C//DTD SVG 1.1//EN" "http://www.w3.org/Graphics/SVG/1.1/DTD/svg11.dtd" >
<svg xmlns="http://www.w3.org/2000/svg" xmlns:xlink="http://www.w3.org/1999/xlink" version="1.1">
<metadata></metadata>
<defs>
<font id="sf_ironsidesregular" horiz-adv-x="768" >
<font-face units-per-em="2048" ascent="1638" descent="-410" />
<missing-glyph horiz-adv-x="341" />
<glyph horiz-adv-x="0" />
<glyph horiz-adv-x="682" />
<glyph unicode=" "  horiz-adv-x="341" />
<glyph unicode="&#x09;" horiz-adv-x="341" />
<glyph unicode="&#xa0;" horiz-adv-x="341" />
<glyph unicode="!" horiz-adv-x="341" d="M43 0v273l256 -34v-254zM43 341q17 128 25.5 254.5t8.5 257.5t-8.5 258t-25.5 254h256v-1058z" />
<glyph unicode="&#x22;" horiz-adv-x="683" d="M43 1143v256l256 -34v-392h-69l-51 170h-136zM384 1143v256l256 -34v-392h-68l-51 170h-137z" />
<glyph unicode="#" horiz-adv-x="1145" d="M43 457l51 154q109 -3 162 -3h108q-1 23 -2 55t-2 74h-44q-94 0 -161.5 0.5t-111.5 1.5l51 154q56 -2 112 -3t113 -1h36q-4 75 -8 155.5t-9 168.5l154 -51q3 -45 7.5 -112t9.5 -157l129 3q-8 175 -18 317l153 -51q7 -55 12.5 -120t9.5 -141q54 2 131 6.5t177 10.5 l-53 -153q-43 -4 -105 -7t-143 -7q0 -8 0.5 -40.5t1.5 -92.5q73 4 147 8.5t152 10.5l-53 -154q-58 -8 -119 -13t-127 -9q0 -102 -1.5 -178t-3.5 -129l-154 53q1 27 1.5 72t0.5 108v67q-5 0 -36.5 -0.5t-91.5 -1.5v-39q0 -87 -0.5 -151t-1.5 -108l-153 53q3 109 3 150v47 q-1 17 -1.5 28.5t-0.5 18.5q-181 0 -322 6zM512 739q1 -22 2 -54t3 -76q2 0 34.5 1t95.5 3q-1 22 -2 54.5t-2 76.5q-22 -1 -54.5 -2t-76.5 -3z" />
<glyph unicode="$" d="M43 171q14 45 24.5 87.5t16.5 82.5h215v-85h170q-62 88 -186 323q-72 137 -131.5 255.5t-108.5 223.5v137l170 170h60q-4 45 -8 87t-9 84h256v-171h43l170 -170q-14 -46 -24.5 -88.5t-16.5 -82.5h-215v85h-170q56 -118 115.5 -237t124.5 -242q29 -56 75 -136.5 t111 -186.5v-136l-170 -171h-43v-169h-256q5 42 9 83.5t8 85.5h-60z" />
<glyph unicode="%" horiz-adv-x="1932" d="M43 512q51 166 51 341q0 174 -51 342l170 170h342l170 -170q-51 -159 -51 -342q0 -182 51 -341l-170 -171h-342zM299 597h170v512h-170v-512zM555 -73l583 1602l239 -89q-173 -382 -319 -782.5t-264 -819.5zM1207 171q51 166 51 341q0 174 -51 341l170 171h342l170 -171 q-51 -158 -51 -341q0 -184 51 -341l-170 -171h-342zM1463 256h170v512h-170v-512z" />
<glyph unicode="&#x26;" d="M43 171q8 44 12.5 88.5t4.5 92.5q0 129 -17 220l184 111l-184 111q8 45 12.5 99.5t4.5 120.5q0 48 -4.5 92.5t-12.5 88.5l170 170h60q-4 46 -8 88.5t-9 82.5h256v-171h43l170 -170q-15 -80 -15 -149q0 -7 -0.5 -12t-1.5 -10h-15q-7 -1 -11 -1.5t-6 -0.5q-45 0 -96 0.5 t-111 1.5v85h-170v-324h273l-103 -205h-170v-324h170v85q62 1 106 1.5t72 0.5q16 0 31.5 -0.5t29.5 -1.5q1 -85 17 -170l-170 -171h-43v-169h-256q5 40 9 82t8 87h-60z" />
<glyph unicode="'" horiz-adv-x="341" d="M43 1126v222l256 17v-392h-69l-51 170z" />
<glyph unicode="(" horiz-adv-x="512" d="M43 0q51 340 51 683q0 338 -51 682l170 171h256v-256h-170v-1195h170v-254h-256z" />
<glyph unicode=")" horiz-adv-x="512" d="M43 85h170v1195h-170v256h256l170 -171q-51 -344 -51 -682q0 -343 51 -683l-170 -169h-256v254z" />
<glyph unicode="*" d="M43 761l271 92l-271 92l92 158l213 -188l-56 280h184l-56 -280l213 188l92 -158l-271 -92l271 -92l-92 -157l-213 188l56 -280h-184l56 280l-213 -188z" />
<glyph unicode="+" horiz-adv-x="802" d="M43 614l34 205q51 -4 101.5 -6.5t104.5 -3.5v104t-1 145l204 -68q-2 -57 -3.5 -102t-1.5 -77q92 2 161 8.5t117 16.5l-34 -205q-89 -20 -240 -23q7 -191 36 -301l-205 68q-8 45 -14.5 102.5t-11.5 130.5q-81 1 -247 6z" />
<glyph unicode="," horiz-adv-x="341" d="M43 0v256l256 -34v-391h-69l-51 169h-136z" />
<glyph unicode="-" horiz-adv-x="857" d="M43 555l68 204q212 2 386.5 15t316.5 37l-68 -205q-229 -55 -703 -51z" />
<glyph unicode="." horiz-adv-x="341" d="M43 17v239l256 -34v-222z" />
<glyph unicode="/" horiz-adv-x="823" d="M0 -73l584 1602l239 -89q-173 -382 -319.5 -782.5t-264.5 -819.5z" />
<glyph unicode="0" d="M43 171q51 249 51 512q0 261 -51 512l170 170h342l170 -170q-51 -243 -51 -512q0 -271 51 -512l-170 -171h-342zM299 256h170v853h-170v-853z" />
<glyph unicode="1" horiz-adv-x="341" d="M43 0q42 340 42 683q0 341 -42 682h256v-1365h-256z" />
<glyph unicode="2" d="M43 0q8 84 12.5 160t4.5 147q0 84 -4.5 166.5t-12.5 166.5l170 171h256v298h-170v-85h-246q-2 45 -4.5 87t-5.5 84l170 170h342l170 -170q-8 -52 -12.5 -105t-4.5 -109q0 -43 4.5 -89.5t12.5 -97.5l-184 -239h-242v-299h170v85h239q0 -29 4.5 -113.5t12.5 -227.5 q-75 8 -159.5 12.5t-181.5 4.5t-181.5 -4.5t-159.5 -12.5z" />
<glyph unicode="3" d="M43 171q16 85 17 170q14 1 29.5 1.5t31.5 0.5q28 0 72 -0.5t106 -1.5v-85h170v324h-170l-103 205h273v324h-170v-85q-60 -1 -104.5 -1.5t-73.5 -0.5h-47q-1 0 -4.5 0.5t-8.5 1.5q-1 0 -1 10t-2 50q-3 51 -15 111l170 170h342l170 -170q-8 -44 -12.5 -88.5t-4.5 -92.5 q0 -67 4.5 -121.5t12.5 -98.5l-184 -111l184 -111q-17 -91 -17 -220q0 -48 4.5 -92.5t12.5 -88.5l-170 -171h-342z" />
<glyph unicode="4" d="M43 512q51 201 51 427q0 225 -51 426h256v-768l170 86v682h256q-51 -335 -51 -682q0 -349 51 -683h-256v493l-256 -152z" />
<glyph unicode="5" d="M43 171q3 42 5.5 83.5t4.5 86.5h246v-85h170v299h-256l-170 170q8 84 12.5 166.5t4.5 166.5q0 72 -4.5 148t-12.5 159q75 -8 159.5 -12.5t181.5 -4.5t181.5 4.5t159.5 12.5q-8 -139 -12.5 -224t-4.5 -117h-239v85h-170v-298h242l184 -239q-8 -52 -12.5 -98.5t-4.5 -89.5 q0 -56 4.5 -109t12.5 -104l-170 -171h-342z" />
<glyph unicode="6" d="M43 171q8 112 12.5 239t4.5 273t-4.5 273t-12.5 239l170 170h342l170 -170q-8 -44 -12.5 -86.5t-4.5 -84.5h-239v85h-170v-298h242l184 -239q-8 -52 -12.5 -98.5t-4.5 -89.5q0 -56 4.5 -109t12.5 -104l-170 -171h-342zM299 256h170v299h-170v-299z" />
<glyph unicode="7" horiz-adv-x="649" d="M-49 1365q163 -34 339 -34q175 0 341 34q-51 -335 -51 -682q0 -349 51 -683h-256v1109h-324z" />
<glyph unicode="8" d="M43 171q8 44 12.5 88.5t4.5 92.5q0 67 -4.5 121.5t-12.5 98.5l184 111l-184 111q8 44 12.5 98.5t4.5 121.5q0 48 -4.5 92.5t-12.5 88.5l170 170h342l170 -170q-8 -44 -12.5 -88.5t-4.5 -92.5q0 -67 4.5 -121.5t12.5 -98.5l-184 -111l184 -111q-8 -44 -12.5 -98.5 t-4.5 -121.5q0 -48 4.5 -92.5t12.5 -88.5l-170 -171h-342zM299 256h170v299h-170v-299zM299 811h170v298h-170v-298z" />
<glyph unicode="9" d="M43 171q8 44 12.5 86t4.5 84h239v-85h170v299h-242l-184 239q8 51 12.5 97.5t4.5 89.5q0 56 -4.5 109t-12.5 105l170 170h342l170 -170q-8 -112 -12.5 -239t-4.5 -273t4.5 -273t12.5 -239l-170 -171h-342zM299 811h170v298h-170v-298z" />
<glyph unicode=":" horiz-adv-x="341" d="M43 17v239l256 -34v-222zM43 819v290l256 -34v-222z" />
<glyph unicode=";" horiz-adv-x="341" d="M43 0v256l256 -34v-391h-69l-51 169h-136zM43 853v256l256 -34v-256z" />
<glyph unicode="&#x3c;" horiz-adv-x="529" d="M43 683l187 512h256q-27 -66 -54 -131t-55 -130q-78 -198 -78 -251q0 -52 78 -251q28 -66 55 -130.5t54 -130.5h-256z" />
<glyph unicode="=" horiz-adv-x="857" d="M43 367l68 205q421 3 703 51l-68 -205q-229 -55 -703 -51zM43 742l68 205q421 4 703 51l-68 -204q-228 -57 -703 -52z" />
<glyph unicode="&#x3e;" horiz-adv-x="529" d="M43 171q27 66 54 130.5t55 130.5q78 199 78 251q0 53 -78 251q-28 65 -55 130t-54 131h256l187 -512l-187 -512h-256z" />
<glyph unicode="?" d="M43 0v256l256 17v-288zM43 341q4 42 6 80.5t2 76.5q0 32 -2 67t-6 75l170 171h256v298h-170v-85h-246l-10 171l170 170h342l170 -170q-17 -88 -17 -185q0 -65 4.5 -118.5t12.5 -97.5l-184 -239h-242v-197q-66 -2 -129.5 -6t-126.5 -11z" />
<glyph unicode="@" horiz-adv-x="1024" d="M0 638q0 223 165 390q167 167 391 167q200 0 335 -136q135 -137 135 -332q0 -223 -167 -390q-166 -166 -391 -166q-200 0 -334 134q-134 136 -134 333zM140 683q-14 -155 86 -263q100 -109 254 -109q153 0 271 109q120 111 133 263q14 154 -86 262q-101 110 -254 110 t-272 -110t-132 -262zM309 497q25 52 29 105q5 51 -10 99l100 93l132 -82q2 32 5.5 60t7.5 51h-87l-82 138q35 -8 74 -12.5t83 -4.5q45 0 84.5 4.5t76.5 12.5q-37 -127 -51 -278q-13 -147 3 -280h-280zM454 543l90 -19l7 84l-87 46z" />
<glyph unicode="A" horiz-adv-x="751" d="M0 0q37 219 72 440.5t70 450.5q46 304 63 474h341q14 -132 65.5 -473.5t139.5 -891.5h-256l-39 348q-46 -17 -89 -42t-84 -59l-27 -247h-256zM311 486q29 23 59.5 41.5t62.5 32.5l-58 515z" />
<glyph unicode="B" d="M43 0q17 171 25.5 340.5t8.5 342.5t-8.5 342t-25.5 340h512l170 -170q-8 -44 -12.5 -88.5t-4.5 -92.5q0 -67 4.5 -121.5t12.5 -98.5l-184 -111l184 -111q-8 -44 -12.5 -98.5t-4.5 -121.5q0 -48 4.5 -92.5t12.5 -88.5l-170 -171h-512zM298 256h171v299h-171v-299zM298 811 h171v298h-171v-298z" />
<glyph unicode="C" d="M43 171q51 249 51 512q0 261 -51 512l170 170h342l170 -170q-14 -46 -24.5 -88.5t-16.5 -82.5h-215v85h-170v-853h170v85h215q12 -76 41 -170l-170 -171h-342z" />
<glyph unicode="D" d="M43 0q51 334 51 683q0 347 -51 682h512l170 -170q-51 -243 -51 -512q0 -271 51 -512l-170 -171h-512zM299 256h170v853h-170v-853z" />
<glyph unicode="E" horiz-adv-x="742" d="M43 0q51 334 51 683q0 347 -51 682q167 -34 341 -34q88 0 172.5 8.5t168.5 25.5l-102 -222h-324v-358h341l-102 -205h-239v-358h324l102 -222q-167 34 -341 34t-341 -34z" />
<glyph unicode="F" horiz-adv-x="725" d="M43 0q51 334 51 683q0 347 -51 682q167 -34 341 -34q88 0 172.5 8.5t168.5 25.5l-102 -222h-324v-358h341l-102 -205h-239v-920z" />
<glyph unicode="G" d="M43 171q51 249 51 512q0 261 -51 512l170 170h342l170 -170q-14 -46 -24.5 -88.5t-16.5 -82.5h-215v85h-170v-853h170v324h-85l102 205h239q-8 -69 -12.5 -145t-4.5 -162t4.5 -162t12.5 -145l-170 -171h-342z" />
<glyph unicode="H" d="M43 0q42 340 42 683q0 341 -42 682h256v-681q42 23 84 41.5t86 32.5v607h256q-42 -341 -42 -682q0 -343 42 -683h-256v563q-88 -26 -170 -75v-488h-256z" />
<glyph unicode="I" horiz-adv-x="341" d="M43 0q42 340 42 683q0 341 -42 682h256v-1365h-256z" />
<glyph unicode="J" horiz-adv-x="341" d="M-118 -305q210 289 210 657q0 29 -1.5 140t-5.5 305q-4 311 -42 568h256v-1365l-383 -340z" />
<glyph unicode="K" horiz-adv-x="725" d="M43 0q42 340 42 683q0 341 -42 682h256v-525l170 525h256q-239 -612 -239 -682q0 -68 239 -683h-256l-170 526v-526h-256z" />
<glyph unicode="L" horiz-adv-x="742" d="M43 0q51 334 51 683q0 347 -51 682h256v-1143h324l102 -222q-84 17 -168.5 25.5t-172.5 8.5q-174 0 -341 -34z" />
<glyph unicode="M" horiz-adv-x="1152" d="M43 0q51 325 51 683q0 356 -51 682l222 -17l34 -135l256 152l143 -143l241 143l170 -170q-51 -293 -51 -598q0 -303 51 -597h-256v1109l-164 -99q-15 -162 -15 -315q0 -355 68 -695l-307 256q20 143 30.5 278t10.5 265q0 99 -1.5 176t-5.5 134l-170 -85v-1024h-256z" />
<glyph unicode="N" d="M43 0q51 325 51 683q0 356 -51 682l222 -17l34 -135l256 152l170 -170q-51 -293 -51 -598t51 -597h-256v1109l-170 -85v-1024h-256z" />
<glyph unicode="O" d="M43 171q51 249 51 512q0 261 -51 512l170 170h342l170 -170q-51 -243 -51 -512q0 -271 51 -512l-170 -171h-342zM299 256h170v853h-170v-853z" />
<glyph unicode="P" d="M43 0q17 171 25.5 340.5t8.5 342.5t-8.5 342t-25.5 340h512l170 -170q-34 -166 -34 -342q0 -88 8.5 -172.5t25.5 -168.5l-170 -171h-257v-681zM298 597h171v512h-171v-512z" />
<glyph unicode="Q" d="M43 171q51 249 51 512q0 261 -51 512l170 170h342l170 -170q-51 -243 -51 -512q0 -271 51 -512l-170 -171h-33q0 -61 28 -123q71 -164 252 -182l-34 -35q-177 0 -308 89q-132 89 -190 251h-57zM299 256h170v853h-170v-853z" />
<glyph unicode="R" d="M43 0q17 171 25.5 340.5t8.5 342.5t-8.5 342t-25.5 340h512l170 -170q-25 -113 -25 -239q0 -118 25 -231l-170 -170q10 -81 32 -159.5t56 -156.5q87 -196 196 -317q110 -122 296 -227l-68 -35q-191 93 -312 195q-121 103 -245 273q-140 197 -212 427v-555h-255zM298 811 h171v298h-171v-298z" />
<glyph unicode="S" d="M43 171q14 45 24.5 87.5t16.5 82.5h215v-85h170q-62 87 -186 323q-71 135 -130.5 254t-109.5 225v137l170 170h342l170 -170q-14 -46 -24.5 -88.5t-16.5 -82.5h-215v85h-170q57 -120 117 -239t123 -240q29 -56 75.5 -136.5t110.5 -186.5v-136l-170 -171h-342z" />
<glyph unicode="T" horiz-adv-x="734" d="M-15 1143l83 222q85 -13 169.5 -19t172.5 -6t172.5 6t168.5 19l-102 -222h-155v-1483l-255 340q14 145 21.5 282t7.5 269q0 153 -7.5 300t-21.5 292h-254z" />
<glyph unicode="U" d="M43 171q51 292 51 597q0 304 -51 597h256v-1109l170 85v1024h256q-51 -326 -51 -682q0 -358 51 -683l-222 17l-34 135l-256 -152z" />
<glyph unicode="V" horiz-adv-x="751" d="M0 1365h256l119 -1075l120 1075h256l-111 -681q-32 -199 -55 -369t-39 -315h-341q-17 166 -63 474q-35 229 -70 450t-72 441z" />
<glyph unicode="W" horiz-adv-x="1152" d="M43 171q51 292 51 597q0 304 -51 597h256v-1109l164 99q15 162 15 316q0 354 -68 694l307 -256q-20 -143 -30.5 -278t-10.5 -264q0 -99 1.5 -176.5t5.5 -134.5l170 85v1024h256q-51 -326 -51 -682q0 -358 51 -683l-222 17l-34 135l-256 -152l-143 143l-241 -143z" />
<glyph unicode="X" horiz-adv-x="751" d="M0 0q34 87 99 345q70 271 70 338t-70 338q-64 254 -99 344h256l119 -546l120 546h256q-17 -44 -42 -129.5t-59 -214.5q-70 -271 -70 -338t70 -338q34 -130 59 -215.5t42 -129.5h-256l-120 546l-119 -546h-256z" />
<glyph unicode="Y" d="M43 171q42 298 42 597q0 298 -42 597h256v-1109l170 85v1024h256q-51 -408 -51 -853q0 -444 51 -852q-169 35 -341 35q-87 0 -171.5 -9t-169.5 -26l170 256h270l-14 236l-256 -152z" />
<glyph unicode="Z" horiz-adv-x="717" d="M17 0v222q120 225 226.5 454t200.5 467h-325l-102 222q81 -8 171.5 -12.5t190.5 -4.5q80 0 160 4.5t161 12.5v-222q-94 -238 -200 -466.5t-227 -454.5h324l103 -222q-82 8 -167 12.5t-175 4.5q-89 0 -174 -4.5t-167 -12.5z" />
<glyph unicode="[" horiz-adv-x="512" d="M43 -169q51 427 51 852t-51 853h426v-256h-170v-1195h170v-254h-426z" />
<glyph unicode="\" horiz-adv-x="823" d="M0 1440l239 89l584 -1602l-239 -89q-119 419 -265 819.5t-319 782.5z" />
<glyph unicode="]" horiz-adv-x="512" d="M43 85h170v1195h-170v256h426q-51 -428 -51 -853t51 -852h-426v254z" />
<glyph unicode="^" horiz-adv-x="597" d="M43 1195l170 170h171l171 -170h-171l-85 85l-86 -85h-170z" />
<glyph unicode="_" horiz-adv-x="853" d="M0 0v205h853v-205h-853z" />
<glyph unicode="`" horiz-adv-x="461" d="M43 1485v170l375 -170l-34 -34z" />
<glyph unicode="a" d="M43 171q34 89 34 196q0 90 -34 179l170 171l256 -152q0 72 1.5 122.5t3.5 80.5h-158l-171 256q72 -17 144 -25.5t146 -8.5t146 8.5t144 25.5q-51 -245 -51 -512q0 -268 51 -512h-512zM299 256l170 -34v153l-170 86v-205z" />
<glyph unicode="b" d="M43 0q51 334 51 683q0 347 -51 682l222 -85q11 -76 20 -177.5t14 -230.5l256 152l170 -171q-51 -158 -51 -341q0 -184 51 -341l-170 -171h-512zM299 256h170v512l-170 -85v-427z" />
<glyph unicode="c" d="M43 171q51 163 51 341q0 177 -51 341l170 171h342l170 -171q-29 -94 -41 -170h-215v85h-170v-512h170v85h215q12 -76 41 -170l-170 -171h-342z" />
<glyph unicode="d" d="M43 171q51 157 51 341q0 183 -51 341l170 171l256 -152q5 129 14 230.5t20 177.5l222 85q-51 -335 -51 -682q0 -349 51 -683h-512zM299 256h170v427l-170 85v-512z" />
<glyph unicode="e" d="M43 171q51 166 51 341q0 174 -51 341l170 171h342l170 -171q-34 -81 -34 -193q0 -101 34 -182l-170 -171l-256 152v-92q0 -51 -1.5 -91.5t-3.5 -70.5h244l119 -205h-444zM299 649l170 -86v205l-170 34v-153z" />
<glyph unicode="f" horiz-adv-x="777" d="M0 802l85 222l132 -15q-7 99 -21 220l512 307l171 -171q-10 -39 -17.5 -81.5t-14.5 -88.5h-224v85l-171 -85v-198q154 7 316 27l-102 -222h-214v-1142l-256 340q17 152 25.5 295t8.5 280q0 125 -3 227h-227z" />
<glyph unicode="g" d="M43 171q51 166 51 341q0 174 -51 341l170 171h512q-51 -326 -51 -683q0 -356 51 -681q-85 17 -169.5 26t-171.5 9t-171.5 -9t-169.5 -26l170 256h270q-4 43 -7 102t-7 134l-256 -152zM299 256l170 85v427h-170v-512z" />
<glyph unicode="h" d="M43 0q51 334 51 683q0 347 -51 682l222 -85q11 -78 20 -179t14 -229l256 152l170 -171q-51 -201 -51 -426q0 -226 51 -427h-256v768l-170 -85v-683h-256z" />
<glyph unicode="i" horiz-adv-x="341" d="M43 0q42 256 42 512q0 255 -42 512l256 -85v-939h-256zM43 1092q8 34 12.5 70.5t4.5 78.5q0 59 -17 124l256 -136v-205z" />
<glyph unicode="j" horiz-adv-x="341" d="M43 -340q42 342 42 681q0 342 -42 683l256 -17v-1007zM43 1092q8 34 12.5 70.5t4.5 78.5q0 59 -17 124l256 -68v-222z" />
<glyph unicode="k" d="M43 0q51 334 51 683q0 347 -51 682l222 -85q10 -114 17 -238.5t12 -261.5l177 244h256l-307 -422l135 81l170 -171q-13 -63 -19 -126.5t-6 -129.5t6 -129.5t19 -126.5h-256v427l-170 -86v-341h-256z" />
<glyph unicode="l" horiz-adv-x="341" d="M43 0q51 334 51 683q0 347 -51 682l256 -85v-1280h-256z" />
<glyph unicode="m" horiz-adv-x="1152" d="M43 0q51 244 51 512q0 267 -51 512l222 -17q25 -57 34 -135l256 152l143 -143l241 143l170 -171q-51 -201 -51 -426q0 -226 51 -427h-256v768l-164 -99q-15 -96 -15 -203q0 -242 68 -466l-307 256q19 101 28.5 201t9.5 200q0 24 -1 51.5t-3 59.5l-170 -85v-683h-256z" />
<glyph unicode="n" d="M43 0q51 244 51 512q0 270 -51 512l222 -17q11 -28 20 -61.5t14 -73.5l256 152l170 -171q-51 -206 -51 -426q0 -219 51 -427h-256v768l-170 -85v-683h-256z" />
<glyph unicode="o" d="M43 171q51 166 51 341q0 174 -51 341l170 171h342l170 -171q-51 -158 -51 -341q0 -184 51 -341l-170 -171h-342zM299 256h170v512h-170v-512z" />
<glyph unicode="p" d="M43 -340q51 334 51 681q0 348 -51 683h512l170 -171q-51 -158 -51 -341q0 -184 51 -341l-170 -171l-256 152q-5 -128 -14 -229t-20 -177zM299 341l170 -85v512h-170v-427z" />
<glyph unicode="q" d="M43 171q51 157 51 341q0 183 -51 341l170 171h512q-51 -335 -51 -683q0 -347 51 -681l-222 86q-11 76 -20 177t-14 229l-256 -152zM299 256l170 85v427h-170v-512z" />
<glyph unicode="r" horiz-adv-x="725" d="M43 0q51 244 51 512q0 270 -51 512l222 -17q25 -57 34 -135l256 152l170 -171q-9 -38 -17 -80t-15 -90h-224v85l-170 -85v-683h-256z" />
<glyph unicode="s" d="M43 171q29 94 41 170h215v-85h170q-207 264 -426 461v136l170 171h342l170 -171q-29 -94 -41 -170h-215v85h-170q43 -71 153 -189q67 -73 135 -141t138 -131v-136l-170 -171h-342z" />
<glyph unicode="t" horiz-adv-x="734" d="M-15 802l83 222l179 -20q1 11 1.5 24.5t0.5 29.5q0 40 -2.5 74t-7.5 63l256 170v-365l256 24l-102 -222h-154v-1142l-256 340q16 118 23.5 241t7.5 254q0 75 -3.5 151t-10.5 156h-271z" />
<glyph unicode="u" d="M43 171q51 205 51 426q0 218 -51 427h256v-768l170 85v683h256q-51 -245 -51 -512q0 -271 51 -512l-222 17q-11 28 -20 61.5t-14 73.5l-256 -152z" />
<glyph unicode="v" horiz-adv-x="751" d="M0 1024h256l119 -768l120 768h256q-84 -243 -135 -497.5t-70 -526.5h-341q-39 543 -205 1024z" />
<glyph unicode="w" horiz-adv-x="1152" d="M43 171q51 201 51 426q0 226 -51 427h256v-768l164 99q15 96 15 203q0 242 -68 466l307 -256q-19 -101 -28.5 -201t-9.5 -200q0 -24 1 -51.5t3 -59.5l170 85v683h256q-51 -245 -51 -512q0 -268 51 -512l-222 17q-25 57 -34 135l-256 -152l-143 143l-241 -143z" />
<glyph unicode="x" horiz-adv-x="751" d="M0 0q28 66 55 131.5t53 131.5q78 198 78 249t-78 249q-26 66 -53 131.5t-55 131.5h256l119 -375l120 375h256q-28 -66 -55 -131.5t-54 -131.5q-79 -197 -79 -249t79 -249q27 -66 54 -131.5t55 -131.5h-256l-120 375l-119 -375h-256z" />
<glyph unicode="y" d="M43 171q42 211 42 426q0 214 -42 427h256v-768l170 85v683h256q-51 -326 -51 -683q0 -356 51 -681q-85 17 -169.5 26t-171.5 9t-171.5 -9t-169.5 -26l170 256h270q-5 45 -8.5 103.5t-5.5 132.5l-256 -152z" />
<glyph unicode="z" horiz-adv-x="717" d="M17 0v222q137 180 243 324t184 256h-325l-102 222q76 -8 153.5 -12.5t158.5 -4.5q111 0 203.5 4.5t167.5 12.5v-222q-90 -141 -196 -285.5t-231 -294.5h324l103 -222q-82 8 -167 12.5t-175 4.5q-89 0 -174 -4.5t-167 -12.5z" />
<glyph unicode="{" horiz-adv-x="640" d="M43 546l34 239q28 1 63.5 6.5t79.5 15.5q-4 140 -16 278.5t-33 279.5l170 171h256v-256h-170v-1195h170v-254h-256l-170 169q21 143 33 284.5t16 285.5q-113 -24 -177 -24z" />
<glyph unicode="|" horiz-adv-x="341" d="M43 -169q17 211 25.5 423t8.5 429t-8.5 429t-25.5 424h256v-1705h-256z" />
<glyph unicode="}" horiz-adv-x="640" d="M43 85h170v1195h-170v256h256l170 -171q-21 -143 -33 -284.5t-16 -285.5q112 24 177 24l-34 -239q-58 -2 -143 -22q4 -139 16 -277.5t33 -280.5l-170 -169h-256v254z" />
<glyph unicode="~" horiz-adv-x="597" d="M43 1109v171q64 85 170 85q37 0 84 -43q49 -42 87 -42q110 0 171 85v-170q-62 -86 -171 -86q-38 0 -87 43q-47 43 -84 43q-107 0 -170 -86z" />
<glyph unicode="&#xa1;" horiz-adv-x="341" d="M43 -357v1057l256 -34q-17 -128 -25.5 -254.5t-8.5 -257.5q0 -130 8.5 -256.5t25.5 -254.5h-256zM43 768v256l256 -17v-273z" />
<glyph unicode="&#xa2;" d="M43 171q51 249 51 512q0 261 -51 512l170 170h60q-4 45 -8 87t-9 84h256v-171h43l170 -170q-14 -46 -24.5 -88.5t-16.5 -82.5h-215v85h-170v-853h170v85h215q12 -76 41 -170l-170 -171h-43v-169h-256q5 42 9 83.5t8 85.5h-60z" />
<glyph unicode="&#xa3;" horiz-adv-x="922" d="M0 802l85 222l132 -15q-7 99 -21 220l512 307l171 -171q-10 -39 -17.5 -81.5t-14.5 -88.5h-224v85l-171 -85v-198q154 7 316 27l-102 -222h-214v-580h325l102 -222q-167 34 -341 34q-175 0 -342 -34q17 152 25.5 295t8.5 280q0 125 -3 227h-227z" />
<glyph unicode="&#xa4;" horiz-adv-x="932" d="M43 328l90 90l-12 12q34 123 34 256t-34 256l9 9l-87 87l153 153l87 -87l9 9h341l12 -12l91 90l153 -153l-90 -91l5 -5q-34 -123 -34 -256t34 -256l-9 -8l94 -94l-153 -154l-94 94l-9 -9h-341l-5 6l-91 -91zM377 515h171v342h-171v-342z" />
<glyph unicode="&#xa5;" horiz-adv-x="751" d="M0 137l51 204q35 -4 75.5 -6t86.5 -2h34v94q-27 -1 -61.5 -1.5t-76.5 -0.5q-38 0 -65.5 0.5t-43.5 1.5l51 204q34 -4 78 -6t98 -2q-36 147 -126 435q-16 52 -41 128.5t-60 178.5h256l119 -546l120 546h256q-14 -35 -38 -109t-59 -186q-42 -136 -73.5 -242.5t-51.5 -187.5 q56 5 111 11.5t111 14.5l-51 -205q-84 -12 -197 -21v-94q49 5 111 12t137 17l-51 -204q-84 -12 -197 -21v-150h-256v137q-27 -1 -61.5 -1.5t-76.5 -0.5q-38 0 -65.5 0.5t-43.5 1.5z" />
<glyph unicode="&#xa8;" horiz-adv-x="478" d="M43 1536q0 36 24.5 60.5t60.5 24.5t60.5 -24.5t24.5 -60.5t-24.5 -60.5t-60.5 -24.5t-60.5 24.5t-24.5 60.5zM265 1536q0 36 24.5 60.5t60.5 24.5t60.5 -24.5t24.5 -60.5t-24.5 -60.5t-60.5 -24.5t-60.5 24.5t-24.5 60.5z" />
<glyph unicode="&#xa9;" horiz-adv-x="1024" d="M0 683q0 211 150 361q150 151 362 151t362 -151q150 -150 150 -361q0 -212 -150 -362t-362 -150t-362 150t-150 362zM140 683q0 -154 109 -263t263 -109t263 109t109 263q0 153 -109 262q-110 110 -263 110t-263 -110q-109 -109 -109 -262zM326 497q27 87 27 186t-27 186 l92 92h188l92 -92q-8 -25 -13 -48t-9 -44h-118v46h-92v-280h92v46h118q8 -45 22 -92l-92 -94h-188z" />
<glyph unicode="&#xad;" horiz-adv-x="857" d="M43 555l68 204q212 2 386.5 15t316.5 37l-68 -205q-229 -55 -703 -51z" />
<glyph unicode="&#xae;" horiz-adv-x="1024" d="M0 667q0 212 150 362t362 150t362 -150t150 -362q0 -141 -74 -263t-197 -189q65 -77 169 -135l-38 -19q-58 28 -106.5 59.5t-86.5 67.5q-86 -33 -179 -33q-212 0 -362 150q-150 151 -150 362zM140 667q0 -101 53 -189q52 -87 142 -137q5 69 7.5 138.5t2.5 141.5 q0 90 -4.5 181.5t-14.5 187.5q-186 -108 -186 -323zM331 992h275l92 -93q-14 -64 -14 -129q0 -63 14 -127l-92 -92q13 -110 68 -218q97 47 153 137q57 91 57 197q0 154 -109 263t-263 109q-95 0 -181 -47zM466 297q7 -1 18.5 -1.5t27.5 -0.5q38 0 79 9q-46 67 -77 128.5 t-48 118.5v-254zM466 689h92v164h-92v-164z" />
<glyph unicode="&#xb0;" horiz-adv-x="341" d="M43 1237q0 53 37 90q38 38 91 38q52 0 90 -38t38 -90q0 -53 -38 -91q-37 -37 -90 -37q-54 0 -91 37t-37 91zM111 1237q0 -59 60 -59q59 0 59 59q0 24 -17.5 42t-41.5 18q-60 0 -60 -60z" />
<glyph unicode="&#xb1;" horiz-adv-x="802" d="M43 0l68 205q363 3 648 51l-68 -205q-227 -54 -648 -51zM43 614l34 205q51 -4 101.5 -6.5t104.5 -3.5v104t-1 145l204 -68q-2 -57 -3.5 -102t-1.5 -77q92 2 161 8.5t117 16.5l-34 -205q-89 -20 -240 -23q7 -191 36 -301l-205 68q-8 45 -14.5 102.5t-11.5 130.5 q-81 1 -247 6z" />
<glyph unicode="&#xb4;" horiz-adv-x="461" d="M43 1485l375 170v-170l-341 -34z" />
<glyph unicode="&#xbf;" d="M43 -186q8 43 12.5 88.5t4.5 95.5q0 64 -4.5 117.5t-12.5 97.5l184 239h242v197q66 2 129.5 6t126.5 11q-4 -42 -6 -80.5t-2 -76.5q0 -32 2 -67.5t6 -74.5l-170 -171h-256v-297h170v86h246l10 -171l-170 -171h-342zM469 734v290l256 -17v-256z" />
<glyph unicode="&#xc0;" horiz-adv-x="751" d="M0 0q37 219 72 440.5t70 450.5q46 304 63 474h341q14 -132 65.5 -473.5t139.5 -891.5h-256l-39 348q-46 -17 -89 -42t-84 -59l-27 -247h-256zM102 1485v170l376 -170l-34 -34zM311 486q29 23 59.5 41.5t62.5 32.5l-58 515z" />
<glyph unicode="&#xc1;" horiz-adv-x="751" d="M0 0q37 219 72 440.5t70 450.5q46 304 63 474h341q14 -132 65.5 -473.5t139.5 -891.5h-256l-39 348q-46 -17 -89 -42t-84 -59l-27 -247h-256zM273 1485l376 170v-170l-342 -34zM311 486q29 23 59.5 41.5t62.5 32.5l-58 515z" />
<glyph unicode="&#xc2;" horiz-adv-x="751" d="M0 0q37 219 72 440.5t70 450.5q46 304 63 474h341q14 -132 65.5 -473.5t139.5 -891.5h-256l-39 348q-46 -17 -89 -42t-84 -59l-27 -247h-256zM119 1451l171 170h171l170 -170h-170l-86 85l-85 -85h-171zM311 486q29 23 59.5 41.5t62.5 32.5l-58 515z" />
<glyph unicode="&#xc3;" horiz-adv-x="751" d="M0 0q37 219 72 440.5t70 450.5q46 304 63 474h341q14 -132 65.5 -473.5t139.5 -891.5h-256l-39 348q-46 -17 -89 -42t-84 -59l-27 -247h-256zM119 1451v170q65 86 171 86q37 0 84 -43q49 -43 87 -43q108 0 170 86v-171q-61 -85 -170 -85q-38 0 -87 42q-47 43 -84 43 q-107 0 -171 -85zM311 486q29 23 59.5 41.5t62.5 32.5l-58 515z" />
<glyph unicode="&#xc4;" horiz-adv-x="751" d="M0 0q37 219 72 440.5t70 450.5q46 304 63 474h341q14 -132 65.5 -473.5t139.5 -891.5h-256l-39 348q-46 -17 -89 -42t-84 -59l-27 -247h-256zM179 1536q0 36 25 60.5t61 24.5q35 0 60 -24.5t25 -60.5t-25 -60.5t-60 -24.5q-36 0 -61 24.5t-25 60.5zM311 486 q29 23 59.5 41.5t62.5 32.5l-58 515zM401 1536q0 36 25 60.5t60 24.5q36 0 61 -24.5t25 -60.5t-25 -60.5t-61 -24.5q-35 0 -60 24.5t-25 60.5z" />
<glyph unicode="&#xc5;" horiz-adv-x="751" d="M0 0q37 219 72 440.5t70 450.5q46 304 63 474h341q14 -132 65.5 -473.5t139.5 -891.5h-256l-39 348q-46 -17 -89 -42t-84 -59l-27 -247h-256zM247 1579q0 52 38 90t90 38t90 -38t38 -90q0 -53 -38 -91q-37 -37 -90 -37t-90 37q-38 38 -38 91zM311 486q29 23 59.5 41.5 t62.5 32.5l-58 515zM316 1579q0 -60 59 -60q60 0 60 60q0 24 -18 41.5t-42 17.5q-59 0 -59 -59z" />
<glyph unicode="&#xc6;" horiz-adv-x="1161" d="M0 0q187 661 360 1365h-2q187 -24 410 -24q222 0 410 24l-103 -222h-324v-358h341l-102 -205h-239v-358h324l103 -222q-166 34 -342 34q-174 0 -341 -34v348q-99 -35 -184 -101l-55 -247h-256zM365 486q65 46 132 74v515z" />
<glyph unicode="&#xc8;" horiz-adv-x="742" d="M43 0q51 334 51 683q0 347 -51 682q167 -34 341 -34q88 0 172.5 8.5t168.5 25.5l-102 -222h-324v-358h341l-102 -205h-239v-358h324l102 -222q-167 34 -341 34t-341 -34zM97 1485v170l376 -170l-34 -34z" />
<glyph unicode="&#xc9;" horiz-adv-x="742" d="M43 0q51 334 51 683q0 347 -51 682q167 -34 341 -34q88 0 172.5 8.5t168.5 25.5l-102 -222h-324v-358h341l-102 -205h-239v-358h324l102 -222q-167 34 -341 34t-341 -34zM270 1485l375 170v-170l-341 -34z" />
<glyph unicode="&#xca;" horiz-adv-x="742" d="M43 0q51 334 51 683q0 347 -51 682q167 -34 341 -34q88 0 172.5 8.5t168.5 25.5l-102 -222h-324v-358h341l-102 -205h-239v-358h324l102 -222q-167 34 -341 34t-341 -34zM116 1451l171 170h170l171 -170h-171l-85 85l-85 -85h-171z" />
<glyph unicode="&#xcb;" horiz-adv-x="742" d="M43 0q51 334 51 683q0 347 -51 682q167 -34 341 -34q88 0 172.5 8.5t168.5 25.5l-102 -222h-324v-358h341l-102 -205h-239v-358h324l102 -222q-167 34 -341 34t-341 -34zM176 1536q0 36 24.5 60.5t60.5 24.5t60.5 -24.5t24.5 -60.5t-24.5 -60.5t-60.5 -24.5t-60.5 24.5 t-24.5 60.5zM398 1536q0 36 24.5 60.5t60.5 24.5t60.5 -24.5t24.5 -60.5t-24.5 -60.5t-60.5 -24.5t-60.5 24.5t-24.5 60.5z" />
<glyph unicode="&#xcc;" horiz-adv-x="341" d="M-101 1485v170l374 -170l-34 -34zM43 0q42 340 42 683q0 341 -42 682h256v-1365h-256z" />
<glyph unicode="&#xcd;" horiz-adv-x="341" d="M43 0q42 340 42 683q0 341 -42 682h256v-1365h-256zM68 1485l376 170v-170l-342 -34z" />
<glyph unicode="&#xce;" horiz-adv-x="341" d="M-84 1451l169 170h171l171 -170h-171l-85 85l-86 -85h-169zM43 0q42 340 42 683q0 341 -42 682h256v-1365h-256z" />
<glyph unicode="&#xcf;" horiz-adv-x="341" d="M-24 1536q0 36 24 60.5t60 24.5t60.5 -24.5t24.5 -60.5t-24.5 -60.5t-60.5 -24.5t-60 24.5t-24 60.5zM43 0q42 340 42 683q0 341 -42 682h256v-1365h-256zM196 1536q0 36 25 60.5t61 24.5q35 0 60 -24.5t25 -60.5t-25 -60.5t-60 -24.5q-36 0 -61 24.5t-25 60.5z" />
<glyph unicode="&#xd1;" d="M43 0q51 325 51 683q0 356 -51 682l222 -17l34 -135l256 152l170 -170q-51 -293 -51 -598t51 -597h-256v1109l-170 -85v-1024h-256zM128 1451v170q65 86 171 86q37 0 84 -43q49 -43 86 -43q109 0 171 86v-171q-61 -85 -171 -85q-37 0 -86 42q-47 43 -84 43 q-108 0 -171 -85z" />
<glyph unicode="&#xd2;" d="M43 171q51 249 51 512q0 261 -51 512l170 170h342l170 -170q-51 -243 -51 -512q0 -271 51 -512l-170 -171h-342zM111 1485v170l375 -170l-34 -34zM299 256h170v853h-170v-853z" />
<glyph unicode="&#xd3;" d="M43 171q51 249 51 512q0 261 -51 512l170 170h342l170 -170q-51 -243 -51 -512q0 -271 51 -512l-170 -171h-342zM282 1485l375 170v-170l-341 -34zM299 256h170v853h-170v-853z" />
<glyph unicode="&#xd4;" d="M43 171q51 249 51 512q0 261 -51 512l170 170h342l170 -170q-51 -243 -51 -512q0 -271 51 -512l-170 -171h-342zM128 1451l171 170h170l171 -170h-171l-85 85l-85 -85h-171zM299 256h170v853h-170v-853z" />
<glyph unicode="&#xd5;" d="M43 171q51 249 51 512q0 261 -51 512l170 170h342l170 -170q-51 -243 -51 -512q0 -271 51 -512l-170 -171h-342zM119 1451v170q65 86 171 86q37 0 84 -43q49 -43 87 -43q108 0 170 86v-171q-61 -85 -170 -85q-38 0 -87 42q-47 43 -84 43q-107 0 -171 -85zM299 256h170 v853h-170v-853z" />
<glyph unicode="&#xd6;" d="M43 171q51 249 51 512q0 261 -51 512l170 170h342l170 -170q-51 -243 -51 -512q0 -271 51 -512l-170 -171h-342zM188 1536q0 36 24.5 60.5t60.5 24.5t60.5 -24.5t24.5 -60.5t-24.5 -60.5t-60.5 -24.5t-60.5 24.5t-24.5 60.5zM299 256h170v853h-170v-853zM410 1536 q0 36 24.5 60.5t60.5 24.5t60.5 -24.5t24.5 -60.5t-24.5 -60.5t-60.5 -24.5t-60.5 24.5t-24.5 60.5z" />
<glyph unicode="&#xd7;" horiz-adv-x="785" d="M43 864l193 97q20 -23 50 -55.5t72 -76.5q126 134 180 215l121 -168q-47 -72 -154 -187q143 -132 237 -187l-192 -98q-72 48 -183 147q-59 -55 -179 -170l-121 169q35 29 73 64t80 75q-30 29 -74 73t-103 102z" />
<glyph unicode="&#xd8;" d="M43 171q51 249 51 512q0 261 -51 512l170 170h342l170 -170q-51 -243 -51 -512q0 -271 51 -512l-170 -171h-342zM299 256h170v345q-46 -2 -88.5 -6.5t-81.5 -12.5v-326zM299 773q38 7 80 12.5t90 9.5v314h-170v-336z" />
<glyph unicode="&#xd9;" d="M43 171q51 292 51 597q0 304 -51 597h256v-1109l170 85v1024h256q-51 -326 -51 -682q0 -358 51 -683l-222 17l-34 135l-256 -152zM111 1485v170l375 -170l-34 -34z" />
<glyph unicode="&#xda;" d="M43 171q51 292 51 597q0 304 -51 597h256v-1109l170 85v1024h256q-51 -326 -51 -682q0 -358 51 -683l-222 17l-34 135l-256 -152zM282 1485l375 170v-170l-341 -34z" />
<glyph unicode="&#xdb;" d="M43 171q51 292 51 597q0 304 -51 597h256v-1109l170 85v1024h256q-51 -326 -51 -682q0 -358 51 -683l-222 17l-34 135l-256 -152zM128 1451l171 170h170l171 -170h-171l-85 85l-85 -85h-171z" />
<glyph unicode="&#xdc;" d="M43 171q51 292 51 597q0 304 -51 597h256v-1109l170 85v1024h256q-51 -326 -51 -682q0 -358 51 -683l-222 17l-34 135l-256 -152zM188 1536q0 36 24.5 60.5t60.5 24.5t60.5 -24.5t24.5 -60.5t-24.5 -60.5t-60.5 -24.5t-60.5 24.5t-24.5 60.5zM410 1536q0 36 24.5 60.5 t60.5 24.5t60.5 -24.5t24.5 -60.5t-24.5 -60.5t-60.5 -24.5t-60.5 24.5t-24.5 60.5z" />
<glyph unicode="&#xdd;" d="M43 171q42 298 42 597q0 298 -42 597h256v-1109l170 85v1024h256q-51 -408 -51 -853q0 -444 51 -852q-169 35 -341 35q-87 0 -171.5 -9t-169.5 -26l170 256h270l-14 236l-256 -152zM282 1485l375 170v-170l-341 -34z" />
<glyph unicode="&#xdf;" d="M43 -340q13 210 19 421.5t6 430.5q0 220 -6 432t-19 421h512l170 -170q-17 -88 -17 -180q0 -69 4.5 -123.5t12.5 -97.5l-184 -111l184 -111q-17 -88 -17 -224q0 -89 17 -177l-256 -171h-119v256h119v299h-119v256h119v298h-170v-1449h-256z" />
<glyph unicode="&#xe0;" d="M43 171q34 89 34 196q0 90 -34 179l170 171l256 -152q0 72 1.5 122.5t3.5 80.5h-158l-171 256q72 -17 144 -25.5t146 -8.5t146 8.5t144 25.5q-51 -245 -51 -512q0 -268 51 -512h-512zM111 1143v171l375 -171l-34 -34zM299 256l170 -34v153l-170 86v-205z" />
<glyph unicode="&#xe1;" d="M43 171q34 89 34 196q0 90 -34 179l170 171l256 -152q0 72 1.5 122.5t3.5 80.5h-158l-171 256q72 -17 144 -25.5t146 -8.5t146 8.5t144 25.5q-51 -245 -51 -512q0 -268 51 -512h-512zM282 1143l375 171v-171l-341 -34zM299 256l170 -34v153l-170 86v-205z" />
<glyph unicode="&#xe2;" d="M43 171q34 89 34 196q0 90 -34 179l170 171l256 -152q0 72 1.5 122.5t3.5 80.5h-158l-171 256q72 -17 144 -25.5t146 -8.5t146 8.5t144 25.5q-51 -245 -51 -512q0 -268 51 -512h-512zM128 1109l171 171h170l171 -171h-171l-85 86l-85 -86h-171zM299 256l170 -34v153 l-170 86v-205z" />
<glyph unicode="&#xe3;" d="M43 171q34 89 34 196q0 90 -34 179l170 171l256 -152q0 72 1.5 122.5t3.5 80.5h-158l-171 256q72 -17 144 -25.5t146 -8.5t146 8.5t144 25.5q-51 -245 -51 -512q0 -268 51 -512h-512zM119 1109v171q64 85 171 85q37 0 84 -43q49 -42 87 -42q109 0 170 85v-170 q-62 -86 -170 -86q-38 0 -87 43q-47 43 -84 43q-106 0 -171 -86zM299 256l170 -34v153l-170 86v-205z" />
<glyph unicode="&#xe4;" d="M43 171q34 89 34 196q0 90 -34 179l170 171l256 -152q0 72 1.5 122.5t3.5 80.5h-158l-171 256q72 -17 144 -25.5t146 -8.5t146 8.5t144 25.5q-51 -245 -51 -512q0 -268 51 -512h-512zM188 1195q0 36 24.5 60.5t60.5 24.5t60.5 -24.5t24.5 -60.5t-24.5 -61t-60.5 -25 t-60.5 25t-24.5 61zM299 256l170 -34v153l-170 86v-205zM410 1195q0 36 24.5 60.5t60.5 24.5t60.5 -24.5t24.5 -60.5t-24.5 -61t-60.5 -25t-60.5 25t-24.5 61z" />
<glyph unicode="&#xe5;" d="M43 171q34 89 34 196q0 90 -34 179l170 171l256 -152q0 72 1.5 122.5t3.5 80.5h-158l-171 256q72 -17 144 -25.5t146 -8.5t146 8.5t144 25.5q-51 -245 -51 -512q0 -268 51 -512h-512zM256 1237q0 53 37 90q38 38 91 38q52 0 90 -38t38 -90q0 -53 -38 -91q-37 -37 -90 -37 q-54 0 -91 37t-37 91zM299 256l170 -34v153l-170 86v-205zM324 1237q0 -59 60 -59t60 59q0 24 -18 42t-42 18q-60 0 -60 -60z" />
<glyph unicode="&#xe6;" horiz-adv-x="1280" d="M43 171q34 89 34 196q0 90 -34 179l170 171l256 -152q0 72 1.5 122.5t3.5 80.5h-158l-171 256q72 -17 144 -25.5t146 -8.5t146 8.5t144 25.5q-15 -77 -24 -126l24 24h342l170 -171q-34 -83 -34 -193q0 -100 34 -183l-170 -170l-256 152q0 -98 -1.5 -161.5t-3.5 -93.5h244 l119 -203h-444l-102 101h-410zM299 256l170 -34v153l-170 86v-205zM811 546l170 -85v205l-170 34v-154z" />
<glyph unicode="&#xe8;" d="M43 171q51 166 51 341q0 174 -51 341l170 171h342l170 -171q-34 -81 -34 -193q0 -101 34 -182l-170 -171l-256 152v-92q0 -51 -1.5 -91.5t-3.5 -70.5h244l119 -205h-444zM111 1143v171l375 -171l-34 -34zM299 649l170 -86v205l-170 34v-153z" />
<glyph unicode="&#xe9;" d="M43 171q51 166 51 341q0 174 -51 341l170 171h342l170 -171q-34 -81 -34 -193q0 -101 34 -182l-170 -171l-256 152v-92q0 -51 -1.5 -91.5t-3.5 -70.5h244l119 -205h-444zM282 1143l375 171v-171l-341 -34zM299 649l170 -86v205l-170 34v-153z" />
<glyph unicode="&#xea;" d="M43 171q51 166 51 341q0 174 -51 341l170 171h342l170 -171q-34 -81 -34 -193q0 -101 34 -182l-170 -171l-256 152v-92q0 -51 -1.5 -91.5t-3.5 -70.5h244l119 -205h-444zM128 1109l171 171h170l171 -171h-171l-85 86l-85 -86h-171zM299 649l170 -86v205l-170 34v-153z " />
<glyph unicode="&#xeb;" d="M43 171q51 166 51 341q0 174 -51 341l170 171h342l170 -171q-34 -81 -34 -193q0 -101 34 -182l-170 -171l-256 152v-92q0 -51 -1.5 -91.5t-3.5 -70.5h244l119 -205h-444zM188 1195q0 36 24.5 60.5t60.5 24.5t60.5 -24.5t24.5 -60.5t-24.5 -61t-60.5 -25t-60.5 25 t-24.5 61zM299 649l170 -86v205l-170 34v-153zM410 1195q0 36 24.5 60.5t60.5 24.5t60.5 -24.5t24.5 -60.5t-24.5 -61t-60.5 -25t-60.5 25t-24.5 61z" />
<glyph unicode="&#xec;" horiz-adv-x="341" d="M-101 1143v171l374 -171l-34 -34zM43 0q42 256 42 512q0 255 -42 512l256 -85v-939h-256z" />
<glyph unicode="&#xed;" horiz-adv-x="341" d="M43 0q42 256 42 512q0 255 -42 512l256 -85v-939h-256zM68 1143l376 171v-171l-342 -34z" />
<glyph unicode="&#xee;" horiz-adv-x="341" d="M-84 1109l169 171h171l171 -171h-171l-85 86l-86 -86h-169zM43 0q42 256 42 512q0 255 -42 512l256 -85v-939h-256z" />
<glyph unicode="&#xef;" horiz-adv-x="341" d="M-24 1195q0 36 24 60.5t60 24.5t60.5 -24.5t24.5 -60.5t-24.5 -61t-60.5 -25t-60 25t-24 61zM43 0q42 256 42 512q0 255 -42 512l256 -85v-939h-256zM196 1195q0 36 25 60.5t61 24.5q35 0 60 -24.5t25 -60.5t-25 -61t-60 -25q-36 0 -61 25t-25 61z" />
<glyph unicode="&#xf1;" d="M43 0q51 244 51 512q0 270 -51 512l222 -17q11 -28 20 -61.5t14 -73.5l256 152l170 -171q-51 -206 -51 -426q0 -219 51 -427h-256v768l-170 -85v-683h-256zM119 1109v171q64 85 171 85q37 0 84 -43q49 -42 87 -42q109 0 170 85v-170q-62 -86 -170 -86q-38 0 -87 43 q-47 43 -84 43q-106 0 -171 -86z" />
<glyph unicode="&#xf2;" d="M43 171q51 166 51 341q0 174 -51 341l170 171h342l170 -171q-51 -158 -51 -341q0 -184 51 -341l-170 -171h-342zM111 1143v171l375 -171l-34 -34zM299 256h170v512h-170v-512z" />
<glyph unicode="&#xf3;" d="M43 171q51 166 51 341q0 174 -51 341l170 171h342l170 -171q-51 -158 -51 -341q0 -184 51 -341l-170 -171h-342zM282 1143l375 171v-171l-341 -34zM299 256h170v512h-170v-512z" />
<glyph unicode="&#xf4;" d="M43 171q51 166 51 341q0 174 -51 341l170 171h342l170 -171q-51 -158 -51 -341q0 -184 51 -341l-170 -171h-342zM128 1109l171 171h170l171 -171h-171l-85 86l-85 -86h-171zM299 256h170v512h-170v-512z" />
<glyph unicode="&#xf5;" d="M43 171q51 166 51 341q0 174 -51 341l170 171h342l170 -171q-51 -158 -51 -341q0 -184 51 -341l-170 -171h-342zM128 1109v171q64 85 171 85q37 0 84 -43q49 -42 86 -42q110 0 171 85v-170q-62 -86 -171 -86q-37 0 -86 43q-47 43 -84 43q-108 0 -171 -86zM299 256h170 v512h-170v-512z" />
<glyph unicode="&#xf6;" d="M43 171q51 166 51 341q0 174 -51 341l170 171h342l170 -171q-51 -158 -51 -341q0 -184 51 -341l-170 -171h-342zM188 1195q0 36 24.5 60.5t60.5 24.5t60.5 -24.5t24.5 -60.5t-24.5 -61t-60.5 -25t-60.5 25t-24.5 61zM299 256h170v512h-170v-512zM410 1195q0 36 24.5 60.5 t60.5 24.5t60.5 -24.5t24.5 -60.5t-24.5 -61t-60.5 -25t-60.5 25t-24.5 61z" />
<glyph unicode="&#xf7;" horiz-adv-x="853" d="M43 597l68 205q251 -49 700 -34l-69 -205q-23 -1 -46.5 -1.5t-48.5 -0.5q-354 0 -604 36zM341 427q0 36 25 60.5t61 24.5t60.5 -24.5t24.5 -60.5t-24.5 -61t-60.5 -25t-61 25t-25 61zM341 939q0 36 25 60.5t61 24.5t60.5 -24.5t24.5 -60.5t-24.5 -61t-60.5 -25t-61 25 t-25 61z" />
<glyph unicode="&#xf8;" d="M43 171q51 163 51 341q0 177 -51 341l170 171h342l170 -171q-51 -158 -51 -341q0 -184 51 -341l-170 -171h-342zM299 256h170v174q-46 -2 -88.5 -6.5t-81.5 -12.5v-155zM299 602q38 7 80 12.5t90 10.5v143h-170v-166z" />
<glyph unicode="&#xf9;" d="M43 171q51 205 51 426q0 218 -51 427h256v-768l170 85v683h256q-51 -245 -51 -512q0 -271 51 -512l-222 17q-11 28 -20 61.5t-14 73.5l-256 -152zM111 1143v171l375 -171l-34 -34z" />
<glyph unicode="&#xfa;" d="M43 171q51 205 51 426q0 218 -51 427h256v-768l170 85v683h256q-51 -245 -51 -512q0 -271 51 -512l-222 17q-11 28 -20 61.5t-14 73.5l-256 -152zM282 1143l375 171v-171l-341 -34z" />
<glyph unicode="&#xfb;" d="M43 171q51 205 51 426q0 218 -51 427h256v-768l170 85v683h256q-51 -245 -51 -512q0 -271 51 -512l-222 17q-11 28 -20 61.5t-14 73.5l-256 -152zM128 1109l171 171h170l171 -171h-171l-85 86l-85 -86h-171z" />
<glyph unicode="&#xfc;" d="M43 171q51 205 51 426q0 218 -51 427h256v-768l170 85v683h256q-51 -245 -51 -512q0 -271 51 -512l-222 17q-11 28 -20 61.5t-14 73.5l-256 -152zM188 1195q0 36 24.5 60.5t60.5 24.5t60.5 -24.5t24.5 -60.5t-24.5 -61t-60.5 -25t-60.5 25t-24.5 61zM410 1195 q0 36 24.5 60.5t60.5 24.5t60.5 -24.5t24.5 -60.5t-24.5 -61t-60.5 -25t-60.5 25t-24.5 61z" />
<glyph unicode="&#xfd;" d="M43 171q42 211 42 426q0 214 -42 427h256v-768l170 85v683h256q-51 -326 -51 -683q0 -356 51 -681q-85 17 -169.5 26t-171.5 9t-171.5 -9t-169.5 -26l170 256h270q-5 45 -8.5 103.5t-5.5 132.5l-256 -152zM282 1143l375 171v-171l-341 -34z" />
<glyph unicode="&#xff;" d="M43 171q42 211 42 426q0 214 -42 427h256v-768l170 85v683h256q-51 -326 -51 -683q0 -356 51 -681q-85 17 -169.5 26t-171.5 9t-171.5 -9t-169.5 -26l170 256h270q-5 45 -8.5 103.5t-5.5 132.5l-256 -152zM188 1195q0 36 24.5 60.5t60.5 24.5t60.5 -24.5t24.5 -60.5 t-24.5 -61t-60.5 -25t-60.5 25t-24.5 61zM410 1195q0 36 24.5 60.5t60.5 24.5t60.5 -24.5t24.5 -60.5t-24.5 -61t-60.5 -25t-60.5 25t-24.5 61z" />
<glyph unicode="&#x152;" horiz-adv-x="1169" d="M43 171q51 249 51 512q0 261 -51 512l170 170h256q7 0 50 -8q24 -5 37.5 -7t16.5 -3q55 -8 114.5 -12t123.5 -4q88 0 172.5 8.5t168.5 25.5l-102 -222h-325v-358h342l-103 -205h-239v-358h325l102 -222q-84 17 -168.5 25.5t-172.5 8.5q-129 0 -238 -15q-3 -1 -16.5 -3.5 t-37.5 -6.5q-41 -9 -50 -9h-256zM299 256h170v853h-170v-853z" />
<glyph unicode="&#x153;" horiz-adv-x="1195" d="M43 171q51 163 51 341q0 177 -51 341l170 171h342l68 -68h358l171 -171q-34 -83 -34 -193q0 -101 34 -182l-171 -171l-256 152v-144q0 -53 -1 -70l1 -6l-3 -4l-2 -30h244l120 -204h-444l-68 67h-359zM299 256h170v512h-170v-512zM725 580l171 -85v205l-171 34v-154z" />
<glyph unicode="&#x178;" d="M43 171q42 298 42 597q0 298 -42 597h256v-1109l170 85v1024h256q-51 -408 -51 -853q0 -444 51 -852q-169 35 -341 35q-87 0 -171.5 -9t-169.5 -26l170 256h270l-14 236l-256 -152zM188 1536q0 36 24.5 60.5t60.5 24.5t60.5 -24.5t24.5 -60.5t-24.5 -60.5t-60.5 -24.5 t-60.5 24.5t-24.5 60.5zM410 1536q0 36 24.5 60.5t60.5 24.5t60.5 -24.5t24.5 -60.5t-24.5 -60.5t-60.5 -24.5t-60.5 24.5t-24.5 60.5z" />
<glyph unicode="&#x2dc;" horiz-adv-x="597" d="M43 1451v170q65 86 170 86q37 0 84 -43q49 -43 87 -43q109 0 171 86v-171q-61 -85 -171 -85q-38 0 -87 42q-47 43 -84 43q-107 0 -170 -85z" />
<glyph unicode="&#x2000;" horiz-adv-x="853" />
<glyph unicode="&#x2001;" horiz-adv-x="1707" />
<glyph unicode="&#x2002;" horiz-adv-x="853" />
<glyph unicode="&#x2003;" horiz-adv-x="1707" />
<glyph unicode="&#x2004;" horiz-adv-x="569" />
<glyph unicode="&#x2005;" horiz-adv-x="426" />
<glyph unicode="&#x2006;" horiz-adv-x="284" />
<glyph unicode="&#x2007;" horiz-adv-x="284" />
<glyph unicode="&#x2008;" horiz-adv-x="213" />
<glyph unicode="&#x2009;" horiz-adv-x="341" />
<glyph unicode="&#x200a;" horiz-adv-x="94" />
<glyph unicode="&#x2010;" horiz-adv-x="857" d="M43 555l68 204q212 2 386.5 15t316.5 37l-68 -205q-229 -55 -703 -51z" />
<glyph unicode="&#x2011;" horiz-adv-x="857" d="M43 555l68 204q212 2 386.5 15t316.5 37l-68 -205q-229 -55 -703 -51z" />
<glyph unicode="&#x2012;" horiz-adv-x="857" d="M43 555l68 204q212 2 386.5 15t316.5 37l-68 -205q-229 -55 -703 -51z" />
<glyph unicode="&#x2013;" horiz-adv-x="1110" d="M43 555l90 204q282 2 513.5 15t420.5 37l-90 -205q-304 -55 -934 -51z" />
<glyph unicode="&#x2014;" horiz-adv-x="2134" d="M43 555l181 204q563 2 1026.5 15t840.5 37l-181 -205q-608 -55 -1867 -51z" />
<glyph unicode="&#x2018;" horiz-adv-x="341" d="M43 973v392h68l51 -170l137 17v-222z" />
<glyph unicode="&#x2019;" horiz-adv-x="341" d="M43 1126v222l256 17v-392h-69l-51 170z" />
<glyph unicode="&#x201a;" horiz-adv-x="341" d="M43 0v222l256 17v-391h-69l-51 169z" />
<glyph unicode="&#x201c;" horiz-adv-x="683" d="M43 1007v392h68l51 -170h137v-256zM384 1007v392h68l51 -170h137v-256z" />
<glyph unicode="&#x201d;" horiz-adv-x="683" d="M43 1143v256l256 -34v-392h-69l-51 170h-136zM384 1143v256l256 -34v-392h-68l-51 170h-137z" />
<glyph unicode="&#x201e;" horiz-adv-x="683" d="M43 0v256l256 -34v-391h-69l-51 169h-136zM384 0v256l256 -34v-391h-68l-51 169h-137z" />
<glyph unicode="&#x2026;" horiz-adv-x="1024" d="M43 17v239l256 -34v-222zM384 17v222l256 17v-222zM725 0v222l256 -17v-237z" />
<glyph unicode="&#x202f;" horiz-adv-x="341" />
<glyph unicode="&#x205f;" horiz-adv-x="426" />
<glyph unicode="&#x2122;" horiz-adv-x="736" d="M43 1198l32 82q55 -9 128 -9q72 0 128 9l-39 -82h-56v-558l-98 128q12 118 12 208q0 103 -12 222h-95zM292 672q10 66 15 129.5t5 126.5q0 64 -5 127.5t-15 128.5l83 -6l14 -50l96 56l53 -52l90 52l65 -63q-19 -104 -19 -225q0 -58 4.5 -114t14.5 -110h-96v417l-61 -38 q-4 -35 -5.5 -64.5t-1.5 -52.5q0 -68 6.5 -133t19.5 -129l-115 96q8 54 12 105t4 100q0 30 -1 59t-3 57l-63 -33v-384h-97z" />
<glyph unicode="&#x25fc;" horiz-adv-x="1025" d="M0 0v1025h1025v-1025h-1025z" />
</font>
</defs>
</svg>
